<?xml version="1.0" encoding="UTF-8" standalone="no"?>
<!DOCTYPE svg PUBLIC "-//W3C//DTD SVG 1.1//EN"
 "http://www.w3.org/Graphics/SVG/1.1/DTD/svg11.dtd">
<!-- Generated by graphviz version 12.2.1 (20241206.2353)
 -->
<!-- Title: G Pages: 1 -->
<svg width="1133pt" height="191pt"
 viewBox="0.00 0.00 1132.95 190.95" xmlns="http://www.w3.org/2000/svg" xmlns:xlink="http://www.w3.org/1999/xlink">
<g id="graph0" class="graph" transform="scale(1 1) rotate(0) translate(21.6 169.35)">
<title>G</title>
<polygon fill="#111111" stroke="none" points="-21.6,21.6 -21.6,-169.35 1111.35,-169.35 1111.35,21.6 -21.6,21.6"/>
<!-- src/App.tsx -->
<g id="node1" class="node">
<title>src/App.tsx</title>
<path fill="none" stroke="#c6c5fe" d="M220.58,-63.75C220.58,-63.75 153.67,-63.75 153.67,-63.75 149.71,-63.75 145.75,-59.79 145.75,-55.83 145.75,-55.83 145.75,-47.92 145.75,-47.92 145.75,-43.96 149.71,-40 153.67,-40 153.67,-40 220.58,-40 220.58,-40 224.54,-40 228.5,-43.96 228.5,-47.92 228.5,-47.92 228.5,-55.83 228.5,-55.83 228.5,-59.79 224.54,-63.75 220.58,-63.75"/>
<text text-anchor="middle" x="187.12" y="-46.45" font-family="Arial" font-size="14.00" fill="#c6c5fe">src/App.tsx</text>
</g>
<!-- src/components/ProductList.tsx -->
<g id="node2" class="node">
<title>src/components/ProductList.tsx</title>
<path fill="none" stroke="#cfffac" d="M460.83,-103.75C460.83,-103.75 272.42,-103.75 272.42,-103.75 268.46,-103.75 264.5,-99.79 264.5,-95.83 264.5,-95.83 264.5,-87.92 264.5,-87.92 264.5,-83.96 268.46,-80 272.42,-80 272.42,-80 460.83,-80 460.83,-80 464.79,-80 468.75,-83.96 468.75,-87.92 468.75,-87.92 468.75,-95.83 468.75,-95.83 468.75,-99.79 464.79,-103.75 460.83,-103.75"/>
<text text-anchor="middle" x="366.62" y="-86.45" font-family="Arial" font-size="14.00" fill="#cfffac">src/components/ProductList.tsx</text>
</g>
<!-- src/App.tsx&#45;&gt;src/components/ProductList.tsx -->
<g id="edge1" class="edge">
<title>src/App.tsx&#45;&gt;src/components/ProductList.tsx</title>
<path fill="none" stroke="#757575" d="M228.85,-61.05C249.88,-65.79 276.05,-71.69 299.86,-77.06"/>
<polygon fill="#757575" stroke="#757575" points="298.96,-80.44 309.49,-79.22 300.5,-73.61 298.96,-80.44"/>
</g>
<!-- src/hooks/useUsers.ts -->
<g id="node3" class="node">
<title>src/hooks/useUsers.ts</title>
<path fill="none" stroke="#c6c5fe" d="M433.08,-23.75C433.08,-23.75 300.17,-23.75 300.17,-23.75 296.21,-23.75 292.25,-19.79 292.25,-15.83 292.25,-15.83 292.25,-7.92 292.25,-7.92 292.25,-3.96 296.21,0 300.17,0 300.17,0 433.08,0 433.08,0 437.04,0 441,-3.96 441,-7.92 441,-7.92 441,-15.83 441,-15.83 441,-19.79 437.04,-23.75 433.08,-23.75"/>
<text text-anchor="middle" x="366.62" y="-6.45" font-family="Arial" font-size="14.00" fill="#c6c5fe">src/hooks/useUsers.ts</text>
</g>
<!-- src/App.tsx&#45;&gt;src/hooks/useUsers.ts -->
<g id="edge2" class="edge">
<title>src/App.tsx&#45;&gt;src/hooks/useUsers.ts</title>
<path fill="none" stroke="#757575" d="M228.85,-42.7C249.88,-37.96 276.05,-32.06 299.86,-26.69"/>
<polygon fill="#757575" stroke="#757575" points="300.5,-30.14 309.49,-24.53 298.96,-23.31 300.5,-30.14"/>
</g>
<!-- src/services/user&#45;service.ts -->
<g id="node4" class="node">
<title>src/services/user&#45;service.ts</title>
<path fill="none" stroke="#c6c5fe" d="M675.58,-63.75C675.58,-63.75 512.67,-63.75 512.67,-63.75 508.71,-63.75 504.75,-59.79 504.75,-55.83 504.75,-55.83 504.75,-47.92 504.75,-47.92 504.75,-43.96 508.71,-40 512.67,-40 512.67,-40 675.58,-40 675.58,-40 679.54,-40 683.5,-43.96 683.5,-47.92 683.5,-47.92 683.5,-55.83 683.5,-55.83 683.5,-59.79 679.54,-63.75 675.58,-63.75"/>
<text text-anchor="middle" x="594.12" y="-46.45" font-family="Arial" font-size="14.00" fill="#c6c5fe">src/services/user&#45;service.ts</text>
</g>
<!-- src/App.tsx&#45;&gt;src/services/user&#45;service.ts -->
<g id="edge3" class="edge">
<title>src/App.tsx&#45;&gt;src/services/user&#45;service.ts</title>
<path fill="none" stroke="#757575" d="M228.81,-51.88C290.15,-51.88 408.16,-51.88 493.27,-51.88"/>
<polygon fill="#757575" stroke="#757575" points="493.02,-55.38 503.02,-51.88 493.02,-48.38 493.02,-55.38"/>
</g>
<!-- src/hooks/useUsers.ts&#45;&gt;src/services/user&#45;service.ts -->
<g id="edge5" class="edge">
<title>src/hooks/useUsers.ts&#45;&gt;src/services/user&#45;service.ts</title>
<path fill="none" stroke="#757575" d="M437.12,-24.2C460.91,-28.42 487.73,-33.18 512.34,-37.54"/>
<polygon fill="#757575" stroke="#757575" points="511.52,-40.95 521.98,-39.25 512.74,-34.06 511.52,-40.95"/>
</g>
<!-- src/services/api&#45;client.ts -->
<g id="node5" class="node">
<title>src/services/api&#45;client.ts</title>
<path fill="none" stroke="#cfffac" d="M1081.83,-63.75C1081.83,-63.75 938.42,-63.75 938.42,-63.75 934.46,-63.75 930.5,-59.79 930.5,-55.83 930.5,-55.83 930.5,-47.92 930.5,-47.92 930.5,-43.96 934.46,-40 938.42,-40 938.42,-40 1081.83,-40 1081.83,-40 1085.79,-40 1089.75,-43.96 1089.75,-47.92 1089.75,-47.92 1089.75,-55.83 1089.75,-55.83 1089.75,-59.79 1085.79,-63.75 1081.83,-63.75"/>
<text text-anchor="middle" x="1010.12" y="-46.45" font-family="Arial" font-size="14.00" fill="#cfffac">src/services/api&#45;client.ts</text>
</g>
<!-- src/hooks/useUsers.ts&#45;&gt;src/services/api&#45;client.ts -->
<g id="edge4" class="edge">
<title>src/hooks/useUsers.ts&#45;&gt;src/services/api&#45;client.ts</title>
<path fill="none" stroke="#757575" d="M441.17,-11.17C543.23,-10.95 733.45,-13.31 894.5,-30.88 909.24,-32.48 924.94,-34.89 939.84,-37.51"/>
<polygon fill="#757575" stroke="#757575" points="939.1,-40.93 949.56,-39.28 940.35,-34.05 939.1,-40.93"/>
</g>
<!-- src/services/user&#45;service.ts&#45;&gt;src/services/api&#45;client.ts -->
<g id="edge8" class="edge">
<title>src/services/user&#45;service.ts&#45;&gt;src/services/api&#45;client.ts</title>
<path fill="none" stroke="#757575" d="M655.91,-64.23C676.06,-67.76 698.66,-71.13 719.5,-72.88 797.01,-79.37 817.04,-79.91 894.5,-72.88 909.98,-71.47 926.5,-69.01 942.03,-66.27"/>
<polygon fill="#757575" stroke="#757575" points="942.45,-69.75 951.65,-64.5 941.19,-62.86 942.45,-69.75"/>
</g>
<!-- src/services/http&#45;service.ts -->
<g id="node7" class="node">
<title>src/services/http&#45;service.ts</title>
<path fill="none" stroke="#c6c5fe" d="M886.58,-63.75C886.58,-63.75 727.42,-63.75 727.42,-63.75 723.46,-63.75 719.5,-59.79 719.5,-55.83 719.5,-55.83 719.5,-47.92 719.5,-47.92 719.5,-43.96 723.46,-40 727.42,-40 727.42,-40 886.58,-40 886.58,-40 890.54,-40 894.5,-43.96 894.5,-47.92 894.5,-47.92 894.5,-55.83 894.5,-55.83 894.5,-59.79 890.54,-63.75 886.58,-63.75"/>
<text text-anchor="middle" x="807" y="-46.45" font-family="Arial" font-size="14.00" fill="#c6c5fe">src/services/http&#45;service.ts</text>
</g>
<!-- src/services/user&#45;service.ts&#45;&gt;src/services/http&#45;service.ts -->
<g id="edge9" class="edge">
<title>src/services/user&#45;service.ts&#45;&gt;src/services/http&#45;service.ts</title>
<path fill="none" stroke="#757575" d="M683.94,-51.88C691.9,-51.88 699.99,-51.88 708.01,-51.88"/>
<polygon fill="#757575" stroke="#757575" points="707.79,-55.38 717.79,-51.88 707.79,-48.38 707.79,-55.38"/>
</g>
<!-- src/main.tsx -->
<g id="node6" class="node">
<title>src/main.tsx</title>
<path fill="none" stroke="#c6c5fe" d="M91.33,-63.75C91.33,-63.75 18.42,-63.75 18.42,-63.75 14.46,-63.75 10.5,-59.79 10.5,-55.83 10.5,-55.83 10.5,-47.92 10.5,-47.92 10.5,-43.96 14.46,-40 18.42,-40 18.42,-40 91.33,-40 91.33,-40 95.29,-40 99.25,-43.96 99.25,-47.92 99.25,-47.92 99.25,-55.83 99.25,-55.83 99.25,-59.79 95.29,-63.75 91.33,-63.75"/>
<text text-anchor="middle" x="54.88" y="-46.45" font-family="Arial" font-size="14.00" fill="#c6c5fe">src/main.tsx</text>
</g>
<!-- src/main.tsx&#45;&gt;src/App.tsx -->
<g id="edge6" class="edge">
<title>src/main.tsx&#45;&gt;src/App.tsx</title>
<path fill="none" stroke="#757575" d="M99.61,-51.88C110.69,-51.88 122.71,-51.88 134.16,-51.88"/>
<polygon fill="#757575" stroke="#757575" points="133.85,-55.38 143.85,-51.88 133.85,-48.38 133.85,-55.38"/>
</g>
<!-- src/services/http&#45;service.ts&#45;&gt;src/services/api&#45;client.ts -->
<g id="edge7" class="edge">
<title>src/services/http&#45;service.ts&#45;&gt;src/services/api&#45;client.ts</title>
<path fill="none" stroke="#757575" d="M894.75,-51.88C902.78,-51.88 910.92,-51.88 918.97,-51.88"/>
<polygon fill="#757575" stroke="#757575" points="918.75,-55.38 928.75,-51.88 918.75,-48.38 918.75,-55.38"/>
</g>
<!-- src/vite&#45;env.d.ts -->
<g id="node8" class="node">
<title>src/vite&#45;env.d.ts</title>
<path fill="none" stroke="#cfffac" d="M101.83,-105.75C101.83,-105.75 7.92,-105.75 7.92,-105.75 3.96,-105.75 0,-101.79 0,-97.83 0,-97.83 0,-89.92 0,-89.92 0,-85.96 3.96,-82 7.92,-82 7.92,-82 101.83,-82 101.83,-82 105.79,-82 109.75,-85.96 109.75,-89.92 109.75,-89.92 109.75,-97.83 109.75,-97.83 109.75,-101.79 105.79,-105.75 101.83,-105.75"/>
<text text-anchor="middle" x="54.88" y="-88.45" font-family="Arial" font-size="14.00" fill="#cfffac">src/vite&#45;env.d.ts</text>
</g>
<!-- vite.config.ts -->
<g id="node9" class="node">
<title>vite.config.ts</title>
<path fill="none" stroke="#cfffac" d="M92.46,-147.75C92.46,-147.75 17.29,-147.75 17.29,-147.75 13.33,-147.75 9.38,-143.79 9.38,-139.83 9.38,-139.83 9.38,-131.92 9.38,-131.92 9.38,-127.96 13.33,-124 17.29,-124 17.29,-124 92.46,-124 92.46,-124 96.42,-124 100.38,-127.96 100.38,-131.92 100.38,-131.92 100.38,-139.83 100.38,-139.83 100.38,-143.79 96.42,-147.75 92.46,-147.75"/>
<text text-anchor="middle" x="54.88" y="-130.45" font-family="Arial" font-size="14.00" fill="#cfffac">vite.config.ts</text>
</g>
</g>
</svg>
